<svg width="24" height="27" viewBox="0 0 24 27" fill="none" xmlns="http://www.w3.org/2000/svg">
<path d="M16.7502 4.20967V2.511C16.7502 2.06456 16.4102 1.69434 16.0002 1.69434C15.5902 1.69434 15.2502 2.06456 15.2502 2.511V4.14434H8.75023V2.511C8.75023 2.06456 8.41023 1.69434 8.00023 1.69434C7.59023 1.69434 7.25023 2.06456 7.25023 2.511V4.20967C4.55023 4.48189 3.24023 6.235 3.04023 8.83745C3.02023 9.15322 3.26023 9.41456 3.54023 9.41456H20.4602C20.7502 9.41456 20.9902 9.14233 20.9602 8.83745C20.7602 6.235 19.4502 4.48189 16.7502 4.20967Z" fill="#797979"/>
<path opacity="0.4" d="M20 11.0479C20.55 11.0479 21 11.5379 21 12.1367V18.8443C21 22.111 19.5 24.2887 16 24.2887H8C4.5 24.2887 3 22.111 3 18.8443V12.1367C3 11.5379 3.45 11.0479 4 11.0479H20Z" fill="#797979"/>
<path d="M8.5 16.6666C8.24 16.6666 7.98 16.5468 7.79 16.3508C7.61 16.1439 7.5 15.8608 7.5 15.5777C7.5 15.2946 7.61 15.0115 7.79 14.8046C8.07 14.4997 8.51 14.4017 8.88 14.5759C9.01 14.6303 9.12 14.7066 9.21 14.8046C9.39 15.0115 9.5 15.2946 9.5 15.5777C9.5 15.8608 9.39 16.1439 9.21 16.3508C9.02 16.5468 8.76 16.6666 8.5 16.6666Z" fill="#797979"/>
<path d="M12 16.6666C11.74 16.6666 11.48 16.5468 11.29 16.3508C11.11 16.1439 11 15.8608 11 15.5777C11 15.2946 11.11 15.0115 11.29 14.8046C11.38 14.7066 11.49 14.6303 11.62 14.5759C11.99 14.4017 12.43 14.4997 12.71 14.8046C12.89 15.0115 13 15.2946 13 15.5777C13 15.8608 12.89 16.1439 12.71 16.3508C12.66 16.3943 12.61 16.4379 12.56 16.4814C12.5 16.525 12.44 16.5577 12.38 16.5795C12.32 16.6121 12.26 16.6339 12.2 16.6448C12.13 16.6557 12.07 16.6666 12 16.6666Z" fill="#797979"/>
<path d="M15.5 16.6666C15.24 16.6666 14.98 16.5468 14.79 16.3508C14.61 16.1439 14.5 15.8608 14.5 15.5777C14.5 15.2946 14.61 15.0115 14.79 14.8046C14.89 14.7066 14.99 14.6303 15.12 14.5759C15.3 14.4888 15.5 14.467 15.7 14.5105C15.76 14.5214 15.82 14.5432 15.88 14.5759C15.94 14.5977 16 14.6304 16.06 14.6739C16.11 14.7175 16.16 14.761 16.21 14.8046C16.39 15.0115 16.5 15.2946 16.5 15.5777C16.5 15.8608 16.39 16.1439 16.21 16.3508C16.16 16.3943 16.11 16.4379 16.06 16.4814C16 16.525 15.94 16.5577 15.88 16.5795C15.82 16.6121 15.76 16.6339 15.7 16.6448C15.63 16.6557 15.56 16.6666 15.5 16.6666Z" fill="#797979"/>
<path d="M8.5 20.4776C8.37 20.4776 8.24 20.4449 8.12 20.3905C7.99 20.3361 7.89 20.2598 7.79 20.1618C7.61 19.9549 7.5 19.6718 7.5 19.3887C7.5 19.1056 7.61 18.8225 7.79 18.6156C7.89 18.5176 7.99 18.4414 8.12 18.3869C8.3 18.2998 8.5 18.278 8.7 18.3216C8.76 18.3325 8.82 18.3542 8.88 18.3869C8.94 18.4087 9 18.4414 9.06 18.4849C9.11 18.5285 9.16 18.572 9.21 18.6156C9.39 18.8225 9.5 19.1056 9.5 19.3887C9.5 19.6718 9.39 19.9549 9.21 20.1618C9.16 20.2054 9.11 20.2598 9.06 20.2925C9 20.336 8.94 20.3687 8.88 20.3905C8.82 20.4232 8.76 20.4449 8.7 20.4558C8.63 20.4667 8.57 20.4776 8.5 20.4776Z" fill="#797979"/>
<path d="M12 20.4776C11.74 20.4776 11.48 20.3578 11.29 20.1618C11.11 19.955 11 19.6719 11 19.3887C11 19.1056 11.11 18.8225 11.29 18.6156C11.66 18.2128 12.34 18.2128 12.71 18.6156C12.89 18.8225 13 19.1056 13 19.3887C13 19.6719 12.89 19.955 12.71 20.1618C12.52 20.3578 12.26 20.4776 12 20.4776Z" fill="#797979"/>
<path d="M15.5 20.4776C15.24 20.4776 14.98 20.3578 14.79 20.1618C14.61 19.955 14.5 19.6719 14.5 19.3887C14.5 19.1056 14.61 18.8225 14.79 18.6156C15.16 18.2128 15.84 18.2128 16.21 18.6156C16.39 18.8225 16.5 19.1056 16.5 19.3887C16.5 19.6719 16.39 19.955 16.21 20.1618C16.02 20.3578 15.76 20.4776 15.5 20.4776Z" fill="#797979"/>
</svg>
