<svg width="22" height="23" viewBox="0 0 22 23" fill="none" xmlns="http://www.w3.org/2000/svg">
<circle cx="11" cy="10.3333" r="3" fill="#CCCCCC"/>
<path d="M20.4743 9.40408C20.717 8.62895 20.8013 7.80917 20.7218 6.99781C20.6423 6.18645 20.4007 5.40159 20.0126 4.69402C18.8177 2.50963 16.4027 1.40308 14.0415 1.91326C13.0093 0.694096 11.4902 0.0126953 9.91496 0.0126953C8.74253 0.0128305 7.60001 0.399472 6.64994 1.11761C5.69987 1.83574 4.99066 2.84879 4.62321 4.01262C3.85842 4.17739 3.136 4.51062 2.50406 4.9901C1.87213 5.46959 1.34518 6.08434 0.958334 6.79338C0.375923 7.85498 0.128107 9.08133 0.250046 10.2985C0.371985 11.5156 0.857486 12.6616 1.63767 13.5741C1.39802 14.3512 1.31763 15.1723 1.40172 15.984C1.48581 16.7957 1.7325 17.5798 2.12573 18.2853C2.70853 19.3525 3.60185 20.1975 4.67574 20.6974C5.74964 21.1973 6.9481 21.3261 8.09681 21.0649C8.61744 21.6698 9.25351 22.154 9.96406 22.4863C10.6746 22.8186 11.4439 22.9916 12.2223 22.9942C13.3949 22.9943 14.5377 22.6078 15.4879 21.8896C16.4382 21.1715 17.1476 20.1583 17.5151 18.9943C18.2797 18.8293 19.0019 18.496 19.6337 18.0166C20.2654 17.5371 20.7922 16.9224 21.1789 16.2135C21.7642 15.146 22.0112 13.9122 21.8844 12.6889C21.7577 11.4657 21.2647 10.3158 20.4743 9.40408ZM12.2223 21.49C11.2593 21.4991 10.3252 21.1469 9.58958 20.4972C9.61706 20.4685 9.69841 20.4398 9.72589 20.4122L14.0954 17.7739C14.204 17.7073 14.2939 17.6118 14.3558 17.4972C14.4178 17.3826 14.4497 17.2529 14.4482 17.1213V10.6807L16.2939 11.7873C16.3213 11.7873 16.3213 11.8148 16.3213 11.8447V17.1776C16.3267 17.7431 16.2246 18.3042 16.0208 18.8281C15.8171 19.3521 15.5158 19.8285 15.1344 20.2297C14.753 20.6309 14.2992 20.949 13.7993 21.1653C13.2994 21.3817 12.7633 21.4921 12.2223 21.49ZM3.37337 17.5464C2.88531 16.6674 2.72262 15.6459 2.88531 14.6531C2.91279 14.6806 2.96775 14.7105 3.02161 14.7381L7.3911 17.3764C7.49665 17.4462 7.61902 17.4833 7.74396 17.4833C7.86889 17.4833 7.99126 17.4462 8.09681 17.3764L13.4435 14.1417V16.3824C13.4435 16.4123 13.4435 16.4399 13.4171 16.4399L8.9927 19.1069C7.03824 20.2985 4.51328 19.5895 3.37337 17.5464ZM2.23565 7.56097C2.7242 6.69246 3.47976 6.02254 4.37918 5.6604V11.107C4.37918 11.3633 4.51548 11.6183 4.73203 11.7597L10.0798 14.9943L8.23312 16.1009C8.20674 16.1009 8.17926 16.1296 8.17926 16.1009L3.75481 13.4327C3.28284 13.1548 2.8685 12.7815 2.53594 12.3345C2.20337 11.8875 1.95923 11.3758 1.81774 10.8292C1.67625 10.2826 1.64023 9.71201 1.71179 9.15071C1.78335 8.58941 1.96106 8.04861 2.23455 7.55982M17.4338 11.2483L12.0871 8.0137L13.9327 6.90714C13.9591 6.90714 13.9877 6.87842 13.9877 6.90714L18.411 9.57299C18.8794 9.85479 19.2898 10.2307 19.6187 10.679C19.9475 11.1273 20.1882 11.6392 20.327 12.1852C20.4657 12.7312 20.4998 13.3005 20.4271 13.8604C20.3545 14.4202 20.1766 14.9594 19.9038 15.4471C19.4218 16.3151 18.663 16.9781 17.7603 17.3201V11.901C17.7691 11.7713 17.7433 11.6415 17.6856 11.5262C17.628 11.411 17.5408 11.3148 17.4338 11.2483ZM19.2519 8.35383C19.211 8.31883 19.1655 8.29019 19.1167 8.2688L14.7472 5.63052C14.6417 5.56065 14.5193 5.52355 14.3944 5.52355C14.2694 5.52355 14.1471 5.56065 14.0415 5.63052L8.6937 8.86516V6.62332C8.6937 6.59459 8.6937 6.56587 8.72118 6.56587L13.1456 3.90001C13.6137 3.61673 14.1308 3.43306 14.6671 3.35958C15.2034 3.2861 15.7483 3.32426 16.2704 3.47187C16.7925 3.61948 17.2815 3.87362 17.7093 4.21964C18.137 4.56567 18.4951 4.99674 18.7628 5.48803C19.2519 6.3395 19.4146 7.36103 19.2519 8.35383ZM7.69009 12.3262L5.84337 11.2196C5.81698 11.2196 5.81698 11.1909 5.81698 11.1622V5.83046C5.81655 5.26401 5.92296 4.70303 6.13013 4.17961C6.3373 3.65619 6.64116 3.18061 7.02433 2.78007C7.40751 2.37953 7.86246 2.06189 8.36318 1.84533C8.8639 1.62877 9.40056 1.51753 9.94244 1.51798C10.9054 1.50889 11.8395 1.86116 12.5751 2.51078C12.5342 2.54578 12.4887 2.57442 12.4399 2.59581L8.07043 5.23294C7.9618 5.29957 7.87196 5.39503 7.80999 5.50965C7.74803 5.62426 7.71614 5.75397 7.71757 5.88561V12.3262H7.69009ZM8.6937 10.0568L11.0824 8.60892L13.471 10.0568V12.9214L11.0824 14.3692L8.6937 12.9214V10.0568Z" fill="#797979"/>
</svg>
