<svg width="24" height="25" viewBox="0 0 24 25" fill="none" xmlns="http://www.w3.org/2000/svg">
<path opacity="0.4" d="M20.0402 6.97168L14.2802 2.85212C12.7102 1.72768 10.3002 1.78901 8.79023 2.98501L3.78023 6.9819C2.78023 7.77923 1.99023 9.41479 1.99023 10.7028V17.7561C1.99023 20.3628 4.06023 22.489 6.61023 22.489H17.3902C19.9402 22.489 22.0102 20.373 22.0102 17.7663V10.8357C22.0102 9.45568 21.1402 7.75879 20.0402 6.97168Z" fill="#797979"/>
<path d="M12 19.1666C11.59 19.1666 11.25 18.8191 11.25 18.4V15.3333C11.25 14.9142 11.59 14.5667 12 14.5667C12.41 14.5667 12.75 14.9142 12.75 15.3333V18.4C12.75 18.8191 12.41 19.1666 12 19.1666Z" fill="#797979"/>
</svg>
