<svg width="14" height="14" viewBox="0 0 14 14" fill="none" xmlns="http://www.w3.org/2000/svg">
<path fill-rule="evenodd" clip-rule="evenodd" d="M6 10.5C6.59095 10.5 7.17611 10.3836 7.72208 10.1575C8.26804 9.93131 8.76412 9.59984 9.18198 9.18198C9.59984 8.76412 9.93131 8.26804 10.1575 7.72208C10.3836 7.17611 10.5 6.59095 10.5 6C10.5 5.40905 10.3836 4.82389 10.1575 4.27792C9.93131 3.73196 9.59984 3.23588 9.18198 2.81802C8.76412 2.40016 8.26804 2.06869 7.72208 1.84254C7.17611 1.6164 6.59095 1.5 6 1.5C4.80653 1.5 3.66193 1.97411 2.81802 2.81802C1.97411 3.66193 1.5 4.80653 1.5 6C1.5 7.19347 1.97411 8.33807 2.81802 9.18198C3.66193 10.0259 4.80653 10.5 6 10.5ZM6 12C7.5913 12 9.11742 11.3679 10.2426 10.2426C11.3679 9.11742 12 7.5913 12 6C12 4.4087 11.3679 2.88258 10.2426 1.75736C9.11742 0.632141 7.5913 0 6 0C4.4087 0 2.88258 0.632141 1.75736 1.75736C0.632141 2.88258 0 4.4087 0 6C0 7.5913 0.632141 9.11742 1.75736 10.2426C2.88258 11.3679 4.4087 12 6 12Z" fill="#787F8A"/>
<path fill-rule="evenodd" clip-rule="evenodd" d="M9.24014 9.21748C9.38128 9.07737 9.57229 8.99906 9.77116 8.99976C9.97004 9.00046 10.1605 9.08013 10.3006 9.22123L13.2819 12.2212C13.4182 12.3631 13.4933 12.5527 13.491 12.7494C13.4888 12.9461 13.4094 13.134 13.2699 13.2727C13.1304 13.4114 12.9421 13.4897 12.7454 13.4908C12.5487 13.492 12.3594 13.4158 12.2184 13.2787L9.23714 10.2787C9.09693 10.1377 9.01848 9.94673 9.01905 9.74786C9.01961 9.54898 9.09913 9.35848 9.24014 9.21823V9.21748Z" fill="#787F8A"/>
</svg>
