<svg width="14" height="14" viewBox="0 0 14 14" fill="none" xmlns="http://www.w3.org/2000/svg">
<path d="M6.75089 12.75C8.08216 12.7498 9.37557 12.3069 10.4275 11.4909C11.4794 10.6749 12.2301 9.53232 12.5613 8.24292C12.8925 6.95351 12.7856 5.59056 12.2572 4.36863C11.7288 3.1467 10.809 2.1352 9.64271 1.49337C8.47637 0.851539 7.12969 0.615832 5.81469 0.823357C4.49969 1.03088 3.29106 1.66985 2.37906 2.63968C1.46706 3.6095 0.903506 4.85509 0.777111 6.18035C0.650716 7.50561 0.968662 8.83527 1.68089 9.96L0.750895 12.75L3.54089 11.82C4.50061 12.4291 5.6142 12.7517 6.75089 12.75Z" stroke="#787F8A" stroke-width="1.5" stroke-linecap="round" stroke-linejoin="round"/>
</svg>
