<svg width="11" height="11" viewBox="0 0 11 11" fill="none" xmlns="http://www.w3.org/2000/svg">
<path d="M9.75 6H6V9.75C6 9.94891 5.92098 10.1397 5.78033 10.2803C5.63968 10.421 5.44891 10.5 5.25 10.5C5.05109 10.5 4.86032 10.421 4.71967 10.2803C4.57902 10.1397 4.5 9.94891 4.5 9.75V6H0.75C0.551088 6 0.360322 5.92098 0.21967 5.78033C0.0790178 5.63968 0 5.44891 0 5.25C0 5.05109 0.0790178 4.86032 0.21967 4.71967C0.360322 4.57902 0.551088 4.5 0.75 4.5H4.5V0.75C4.5 0.551088 4.57902 0.360322 4.71967 0.21967C4.86032 0.0790174 5.05109 0 5.25 0C5.44891 0 5.63968 0.0790174 5.78033 0.21967C5.92098 0.360322 6 0.551088 6 0.75V4.5H9.75C9.94891 4.5 10.1397 4.57902 10.2803 4.71967C10.421 4.86032 10.5 5.05109 10.5 5.25C10.5 5.44891 10.421 5.63968 10.2803 5.78033C10.1397 5.92098 9.94891 6 9.75 6Z" fill="white"/>
</svg>
