<svg width="17" height="15" viewBox="0 0 17 15" fill="none" xmlns="http://www.w3.org/2000/svg">
<path d="M8.0625 2.22435L7.6575 2.61435C7.70997 2.66879 7.77288 2.7121 7.84247 2.74167C7.91205 2.77125 7.98689 2.78649 8.0625 2.78649C8.13811 2.78649 8.21295 2.77125 8.28253 2.74167C8.35212 2.7121 8.41503 2.66879 8.4675 2.61435L8.0625 2.22435ZM6.132 11.8409C4.995 10.9446 3.75225 10.0694 2.766 8.95935C1.8 7.87035 1.125 6.60061 1.125 4.95211H0C0 6.9516 0.8325 8.4771 1.92525 9.70635C2.99775 10.9139 4.36575 11.8814 5.43525 12.7244L6.132 11.8409ZM1.125 4.95211C1.125 3.3396 2.03625 1.9866 3.2805 1.41735C4.4895 0.864605 6.114 1.01085 7.6575 2.61435L8.4675 1.8351C6.6375 -0.0676451 4.5105 -0.381895 2.8125 0.394355C1.152 1.1541 0 2.91811 0 4.95211H1.125ZM5.43525 12.7244C5.82 13.0274 6.2325 13.3499 6.65025 13.5944C7.068 13.8389 7.545 14.0369 8.0625 14.0369V12.9119C7.83 12.9119 7.557 12.8219 7.218 12.6231C6.87825 12.4251 6.5265 12.1521 6.132 11.8409L5.43525 12.7244ZM10.6898 12.7244C11.7593 11.8806 13.1273 10.9146 14.1998 9.70635C15.2925 8.47635 16.125 6.9516 16.125 4.95211H15C15 6.60061 14.325 7.87035 13.359 8.95935C12.3728 10.0694 11.13 10.9446 9.993 11.8409L10.6898 12.7244ZM16.125 4.95211C16.125 2.91811 14.9738 1.1541 13.3125 0.394355C11.6145 -0.381895 9.489 -0.0676451 7.6575 1.83435L8.4675 2.61435C10.011 1.0116 11.6355 0.864605 12.8445 1.41735C14.0887 1.9866 15 3.33885 15 4.95211H16.125ZM9.993 11.8409C9.5985 12.1521 9.24675 12.4251 8.907 12.6231C8.56725 12.8211 8.295 12.9119 8.0625 12.9119V14.0369C8.58 14.0369 9.057 13.8381 9.47475 13.5944C9.89325 13.3499 10.305 13.0274 10.6898 12.7244L9.993 11.8409Z" fill="#787F8A"/>
</svg>
