<svg width="15" height="15" viewBox="0 0 15 15" fill="none" xmlns="http://www.w3.org/2000/svg">
<path d="M0.75 12.5625C0.75 11.6674 1.10558 10.8089 1.73851 10.176C2.37145 9.54308 3.22989 9.1875 4.125 9.1875H10.875C11.7701 9.1875 12.6285 9.54308 13.2615 10.176C13.8944 10.8089 14.25 11.6674 14.25 12.5625C14.25 13.0101 14.0722 13.4393 13.7557 13.7557C13.4393 14.0722 13.0101 14.25 12.5625 14.25H2.4375C1.98995 14.25 1.56072 14.0722 1.24426 13.7557C0.92779 13.4393 0.75 13.0101 0.75 12.5625Z" stroke="#787F8A" stroke-width="1.5" stroke-linejoin="round"/>
<path d="M7.5 5.8125C8.89797 5.8125 10.0312 4.67922 10.0312 3.28125C10.0312 1.88328 8.89797 0.75 7.5 0.75C6.10203 0.75 4.96875 1.88328 4.96875 3.28125C4.96875 4.67922 6.10203 5.8125 7.5 5.8125Z" stroke="#787F8A" stroke-width="1.5"/>
</svg>
